<?xml version="1.0" standalone="no"?>
<!DOCTYPE svg PUBLIC "-//W3C//DTD SVG 20010904//EN"
 "http://www.w3.org/TR/2001/REC-SVG-20010904/DTD/svg10.dtd">
<svg version="1.0" xmlns="http://www.w3.org/2000/svg"
 width="157.000000pt" height="115.000000pt" viewBox="0 0 157.000000 115.000000"
 preserveAspectRatio="xMidYMid meet">
<metadata>
Created by potrace 1.14, written by Peter Selinger 2001-2017
</metadata>
<g transform="translate(0.000000,115.000000) scale(0.100000,-0.100000)"
fill="#000000" stroke="none">
<path d="M20 667 c0 -51 -3 -50 93 -62 27 -4 67 -13 90 -21 22 -8 50 -12 61
-9 12 3 15 2 7 -1 -8 -4 6 -17 40 -35 40 -23 55 -26 61 -17 6 8 7 4 3 -10 -6
-21 -4 -23 17 -17 16 4 19 3 9 -3 -16 -12 3 -27 21 -16 6 4 8 3 5 -3 -9 -14
34 -51 56 -48 9 2 17 -1 17 -7 0 -6 -7 -8 -15 -4 -22 8 -19 1 19 -48 19 -25
37 -42 42 -38 4 4 4 2 0 -5 -4 -7 4 -34 17 -60 14 -26 28 -68 32 -92 l7 -45
15 28 c15 29 9 51 -7 26 -8 -12 -10 -11 -10 7 0 18 4 21 26 17 24 -4 26 -3 20
21 -4 17 -3 24 4 20 5 -3 10 -15 10 -26 0 -13 4 -18 11 -13 9 5 10 -1 5 -20
-4 -15 -2 -26 4 -26 6 0 7 -18 3 -47 -5 -36 -3 -44 7 -38 10 6 12 0 8 -23 -2
-17 -1 -29 4 -26 4 3 8 25 8 50 0 31 -4 43 -11 38 -8 -4 -9 1 -4 15 8 27 -26
142 -57 191 -12 19 -23 40 -24 46 -4 24 -37 64 -47 57 -6 -3 -7 -1 -3 5 9 15
-131 155 -149 148 -8 -3 -14 0 -12 5 3 16 -107 76 -182 99 -35 11 -94 23 -132
26 l-69 7 0 -46z"/>
<path d="M20 352 l0 -49 58 -14 c31 -7 63 -13 69 -12 7 0 11 -3 8 -7 -9 -14
27 -21 44 -8 14 11 14 11 3 -3 -10 -13 -10 -18 1 -28 8 -6 17 -9 20 -6 4 3 5
2 2 -2 -3 -3 6 -20 19 -37 26 -35 56 -114 56 -149 0 -20 5 -22 50 -22 58 0 58
1 35 90 -17 65 -52 128 -66 120 -5 -4 -6 0 -3 8 7 19 -72 90 -138 123 -29 15
-71 27 -94 28 -23 0 -40 4 -37 9 2 4 -3 7 -11 7 -12 0 -16 -11 -16 -48z"/>
</g>
</svg>
