<?xml version="1.0" standalone="no"?>
<!DOCTYPE svg PUBLIC "-//W3C//DTD SVG 20010904//EN"
 "http://www.w3.org/TR/2001/REC-SVG-20010904/DTD/svg10.dtd">
<svg version="1.0" xmlns="http://www.w3.org/2000/svg"
 width="434.000000pt" height="321.000000pt" viewBox="0 0 434.000000 321.000000"
 preserveAspectRatio="xMidYMid meet">

<g transform="translate(0.000000,321.000000) scale(0.100000,-0.100000)"
fill="#000000" stroke="none">
<path d="M1680 2979 c-65 -14 -60 103 -60 -1374 0 -1237 1 -1344 17 -1356 24
-21 1042 -21 1066 0 16 12 17 119 17 1357 l0 1344 -24 15 c-20 14 -89 16 -504
18 -265 1 -495 -1 -512 -4z m197 -252 c-18 -18 -34 -31 -36 -30 -6 4 51 63 60
63 4 0 -7 -15 -24 -33z m80 -49 c-2 -18 -4 -6 -4 27 0 33 2 48 4 33 2 -15 2
-42 0 -60z m99 37 c9 -13 14 -30 11 -37 -3 -8 -6 -6 -6 5 -1 11 -16 33 -33 50
-23 21 -26 27 -10 18 12 -6 29 -23 38 -36z m275 2 c-10 -9 -11 -8 -5 6 3 10 9
15 12 12 3 -3 0 -11 -7 -18z m119 -2 c14 -19 14 -19 -2 -6 -10 7 -18 18 -18
24 0 6 1 8 3 6 1 -2 9 -13 17 -24z m-613 -82 c-3 -10 -5 -2 -5 17 0 19 2 27 5
18 2 -10 2 -26 0 -35z m225 -40 c-6 -10 -21 -27 -33 -38 -19 -16 -18 -14 4 13
15 19 27 38 27 44 0 6 3 9 6 6 3 -4 1 -15 -4 -25z m-178 -36 l21 -18 -22 11
c-22 10 -43 39 -43 57 0 4 6 -1 12 -12 6 -11 20 -28 32 -38z m455 -1 c-3 -3
-11 5 -18 17 -13 21 -12 21 5 5 10 -10 16 -20 13 -22z m84 -298 l32 -1 -32 -4
c-28 -4 -33 -9 -34 -31 l-2 -27 -4 28 c-3 21 -10 27 -31 28 l-27 2 28 4 c21 3
27 10 28 31 l2 27 4 -27 c4 -23 10 -28 36 -30z m-83 -162 c0 -2 -8 -10 -17
-17 -16 -13 -17 -12 -4 4 13 16 21 21 21 13z m115 -16 c10 -11 16 -20 13 -20
-3 0 -13 9 -23 20 -10 11 -16 20 -13 20 3 0 13 -9 23 -20z m15 -103 c0 -2 -10
-12 -22 -23 l-23 -19 19 23 c18 21 26 27 26 19z m-52 -184 c-16 -2 -40 -2 -55
0 -16 2 -3 4 27 4 30 0 43 -2 28 -4z"/>
</g>
</svg>
