<?xml version="1.0" encoding="UTF-8" standalone="no"?>
<svg
   xmlns:dc="http://purl.org/dc/elements/1.1/"
   xmlns:cc="http://creativecommons.org/ns#"
   xmlns:rdf="http://www.w3.org/1999/02/22-rdf-syntax-ns#"
   xmlns:svg="http://www.w3.org/2000/svg"
   xmlns="http://www.w3.org/2000/svg"
   xmlns:sodipodi="http://sodipodi.sourceforge.net/DTD/sodipodi-0.dtd"
   xmlns:inkscape="http://www.inkscape.org/namespaces/inkscape"
   enable-background="new 0 0 515.91 728.5"
   height="600"
   id="Layer_1"
   version="1.1"
   viewBox="0 0 600.00003 600"
   width="600"
   xml:space="preserve"
   inkscape:version="0.91 r13725"
   sodipodi:docname="microsoft_windows.svg"><metadata
     id="metadata13"><rdf:RDF><cc:Work
         rdf:about=""><dc:format>image/svg+xml</dc:format><dc:type
           rdf:resource="http://purl.org/dc/dcmitype/StillImage" /><dc:title></dc:title></cc:Work></rdf:RDF></metadata><sodipodi:namedview
     pagecolor="#ffffff"
     bordercolor="#666666"
     borderopacity="1"
     objecttolerance="10"
     gridtolerance="10"
     guidetolerance="10"
     inkscape:pageopacity="0"
     inkscape:pageshadow="2"
     inkscape:window-width="815"
     inkscape:window-height="596"
     id="namedview11"
     showgrid="false"
     inkscape:zoom="0.4609375"
     inkscape:cx="256"
     inkscape:cy="256"
     inkscape:window-x="0"
     inkscape:window-y="0"
     inkscape:window-maximized="0"
     inkscape:current-layer="Layer_1" /><defs
     id="defs7" /><g
     id="g4492"
     transform="translate(188.1786,148.25002)"><path
       d="m -733.62329,72.267944 c 0,203.804876 -165.21649,369.021366 -369.02141,369.021366 -203.8048,0 -369.0213,-165.21649 -369.0213,-369.021366 0,-203.804874 165.2165,-369.021364 369.0213,-369.021364 203.80492,0 369.02141,165.21649 369.02141,369.021364 z"
       id="path5022"
       style="fill:#00a1f1;fill-opacity:1;fill-rule:nonzero;stroke:none"
       transform="matrix(0.69372682,0,0,0.69372682,884.75558,97.615782)"
       inkscape:connector-curvature="0" /><g
       id="g4390"
       transform="matrix(1.192917,0,0,1.192917,-2136.5766,-1759.935)"><polygon
         id="polygon15467"
         points="32,0 32,15 15,15 15,2.5 "
         style="fill:#ffffff;fill-opacity:1"
         transform="matrix(8.9067392,0,0,8.9067392,1731.3252,1456.6689)" /><polygon
         id="polygon15469"
         points="13,2.797 13,15 0,15 0,4.703 "
         style="fill:#ffffff;fill-opacity:1"
         transform="matrix(8.9067392,0,0,8.9067392,1731.3252,1456.6689)" /><polygon
         id="polygon15471"
         points="32,32 32,17 15,17 15,29.5 "
         style="fill:#ffffff;fill-opacity:1"
         transform="matrix(8.9067392,0,0,8.9067392,1731.3252,1456.6689)" /><polygon
         id="polygon15473"
         points="13,29.203 13,17 0,17 0,27.297 "
         style="fill:#ffffff;fill-opacity:1"
         transform="matrix(8.9067392,0,0,8.9067392,1731.3252,1456.6689)" /></g></g></svg>