<?xml version="1.0" encoding="utf-8"?>
<!-- Generator: Adobe Illustrator 16.0.0, SVG Export Plug-In . SVG Version: 6.00 Build 0)  -->
<!DOCTYPE svg PUBLIC "-//W3C//DTD SVG 1.1//EN" "http://www.w3.org/Graphics/SVG/1.1/DTD/svg11.dtd">
<svg xmlns="http://www.w3.org/2000/svg" xmlns:xlink="http://www.w3.org/1999/xlink" version="1.1" id="Layer_1" x="0px" y="0px" width="380px" height="380px" viewBox="236.5 131 380 380" xml:space="preserve">
<g>
	<path fill="#666666" d="M921.205,685.756c0.825-1.871,1.301-3.932,1.301-6.109c0-8.391-6.826-15.217-15.216-15.217   c-8.391,0-15.216,6.826-15.216,15.217s6.825,15.215,15.216,15.215c1.8,0,3.504-0.369,5.106-0.945l116.684,125.017l-65.64,131.279   c-0.288-0.014-0.562-0.086-0.854-0.086c-8.391,0-15.216,6.826-15.216,15.215c0,8.391,6.825,15.217,15.216,15.217   s15.216-6.826,15.216-15.217c0-3.729-1.401-7.098-3.634-9.748l67.508-135.023c1.118-2.242,0.729-4.945-0.979-6.777L921.205,685.756   z"/>
	<path fill="#666666" d="M1004.821,820.569c1.151-2.309,0.7-5.098-1.124-6.922L875.322,685.271c0.7-1.742,1.104-3.633,1.104-5.625   c0-8.391-6.826-15.217-15.216-15.217c-8.391,0-15.216,6.826-15.216,15.217s6.825,15.215,15.216,15.215   c1.991,0,3.878-0.408,5.62-1.104l70.416,70.416c-0.139,0.115-0.312,0.164-0.441,0.293l-63.465,63.47l-32.074-32.074   c0.696-1.741,1.104-3.632,1.104-5.624c0-8.391-6.825-15.217-15.211-15.217c-8.391,0-15.216,6.826-15.216,15.217   c0,8.39,6.825,15.216,15.216,15.216c1.988,0,3.879-0.408,5.621-1.105l32.078,32.074L830.83,870.45   c-0.422,0.422-0.682,0.926-0.949,1.426c-1.379,1.1-2.314,2.717-2.314,4.617v28.887c-1.752,0.715-3.384,1.742-4.762,3.121   c-5.928,5.932-5.928,15.584,0,21.518c2.875,2.875,6.696,4.459,10.762,4.459c4.066,0,7.887-1.584,10.757-4.459   c2.876-2.875,4.46-6.695,4.46-10.758c0-4.061-1.584-7.885-4.46-10.76c-1.378-1.379-3.005-2.406-4.757-3.121v-26.697   l105.734-105.733c0.13-0.131,0.178-0.303,0.293-0.443l13.118,13.123L856.971,887.37c-0.037,0.039-0.047,0.092-0.086,0.129   c-0.499,0.529-0.922,1.135-1.205,1.82c-0.302,0.734-0.465,1.512-0.465,2.299v50.631c-1.752,0.715-3.385,1.742-4.762,3.119   c-5.934,5.93-5.934,15.586,0,21.52c2.875,2.875,6.695,4.453,10.762,4.453c4.065,0,7.887-1.578,10.756-4.453   c5.934-5.934,5.934-15.586,0-21.52c-1.377-1.377-3.004-2.404-4.756-3.119v-48.154l99.983-99.983l24.956,24.954l-65.573,131.146   c-0.293-0.014-0.566-0.086-0.859-0.086c-8.391,0-15.216,6.826-15.216,15.215c0,8.391,6.825,15.217,15.216,15.217   s15.216-6.826,15.216-15.217c0-3.729-1.401-7.098-3.633-9.748L1004.821,820.569z"/>
	<path fill="#666666" d="M1100.831,940.909c-1.234,0-2.415,0.188-3.562,0.467l-18.087-24.111v-99.379   c0-1.502-0.566-2.947-1.579-4.057l-39.398-42.978l29.348-29.348c1.742,0.701,3.633,1.107,5.625,1.107   c8.391,0,15.211-6.824,15.211-15.215s-6.825-15.217-15.211-15.217c-8.391,0-15.216,6.826-15.216,15.217   c0,1.992,0.408,3.879,1.104,5.621l-28.982,28.977l-14.717-16.055l52.187-52.186c1.742,0.695,3.633,1.104,5.625,1.104   c8.391,0,15.211-6.826,15.211-15.217s-6.825-15.215-15.211-15.215c-8.391,0-15.216,6.824-15.216,15.215   c0,1.992,0.408,3.883,1.104,5.627l-51.811,51.82l-29.448-32.127v-11.348c5.409-2.332,9.216-7.713,9.216-13.973   c0-8.391-6.825-15.215-15.216-15.215s-15.216,6.824-15.216,15.215c0,6.26,3.802,11.641,9.216,13.973v13.68   c0,0.293,0.125,0.549,0.168,0.826c0.067,0.457,0.101,0.908,0.273,1.34c0.158,0.412,0.423,0.748,0.667,1.109   c0.168,0.254,0.255,0.547,0.471,0.777l99.802,108.872v99.043c0,1.301,0.418,2.564,1.2,3.602l19.301,25.736   c-1.282,2.229-2.074,4.777-2.074,7.527c0,8.391,6.826,15.215,15.216,15.215c8.391,0,15.217-6.824,15.217-15.215   S1109.216,940.909,1100.831,940.909z"/>
</g>
<g>
	<path fill="#666666" d="M264.5,242v69.167h332.001V242H264.5z M326.75,297.333c-11.439,0-20.75-9.296-20.75-20.75   c0-11.455,9.311-20.75,20.75-20.75c11.44,0,20.75,9.311,20.75,20.75S338.19,297.333,326.75,297.333z M541.167,283.5h-69.166   c-3.805,0-6.916-3.1-6.916-6.917c0-3.818,3.111-6.917,6.916-6.917h69.166c3.805,0,6.918,3.099,6.918,6.917   C548.085,280.4,544.972,283.5,541.167,283.5z"/>
	<path fill="#666666" d="M333.667,359.584c0,3.82-3.096,6.916-6.917,6.916s-6.917-3.096-6.917-6.916   c0-3.822,3.096-6.918,6.917-6.918S333.667,355.762,333.667,359.584z"/>
	<path fill="#666666" d="M539.66,161.6c-1.314-1.66-3.311-2.6-5.409-2.6H326.75c-2.103,0-4.081,0.94-5.409,2.6l-53.258,66.566   h324.822L539.66,161.6L539.66,161.6z"/>
	<path fill="#666666" d="M264.5,394.166h332.001V325H264.5V394.166z M472.001,352.666h69.166c3.805,0,6.918,3.113,6.918,6.918   c0,3.816-3.113,6.916-6.918,6.916h-69.166c-3.805,0-6.916-3.1-6.916-6.916C465.085,355.779,468.196,352.666,472.001,352.666z    M326.75,338.834c11.44,0,20.75,9.318,20.75,20.75c0,11.457-9.31,20.75-20.75,20.75c-11.439,0-20.75-9.297-20.75-20.75   C306,348.152,315.311,338.834,326.75,338.834z"/>
	<path fill="#666666" d="M333.667,276.583c0,3.821-3.096,6.917-6.917,6.917s-6.917-3.096-6.917-6.917   c0-3.822,3.096-6.917,6.917-6.917S333.667,272.761,333.667,276.583z"/>
	<path fill="#666666" d="M264.5,456.416c0,26.506,8.079,34.584,34.583,34.584h262.834c26.506,0,34.584-8.078,34.584-34.584V408   H264.5V456.416z M472.001,435.666h69.166c3.805,0,6.918,3.113,6.918,6.918c0,3.816-3.113,6.916-6.918,6.916h-69.166   c-3.805,0-6.916-3.1-6.916-6.916C465.085,438.779,468.196,435.666,472.001,435.666z M326.75,421.834   c11.44,0,20.75,9.318,20.75,20.75c0,11.457-9.31,20.75-20.75,20.75c-11.439,0-20.75-9.297-20.75-20.75   C306,431.152,315.311,421.834,326.75,421.834z"/>
	<path fill="#666666" d="M333.667,442.584c0,3.82-3.096,6.916-6.917,6.916s-6.917-3.096-6.917-6.916   c0-3.822,3.096-6.918,6.917-6.918S333.667,438.762,333.667,442.584z"/>
</g>
<path fill="#666666" d="M-127.632,662.5l58.904-58.904l-70.357-70.359l-58.906,58.904l-14.725-14.725l-213.531,213.939l99.401,99.4  l213.532-213.529L-127.632,662.5z M-139.085,546.736l56.859,56.859l-52.359,52.359l-56.861-56.859L-139.085,546.736z"/>
<rect x="-161.682" y="576.053" transform="matrix(0.7071 0.7071 -0.7071 0.7071 372.6566 277.7963)" fill="#666666" width="25.362" height="25.362"/>
<rect x="-137.133" y="600.613" transform="matrix(0.7071 0.7071 -0.7071 0.7071 397.2311 267.6591)" fill="#666666" width="25.361" height="25.361"/>
<polygon fill="#666666" points="1430.714,320.232 1190.718,320.232 1134.248,514.347 1487.185,514.347 "/>
<path fill="#666666" d="M1134.248,528.466v63.527h352.937v-63.527H1134.248z M1367.187,574.347c-7.797,0-14.118-6.318-14.118-14.117  c0-7.801,6.321-14.117,14.118-14.117c7.795,0,14.117,6.316,14.117,14.117C1381.304,568.028,1374.981,574.347,1367.187,574.347z   M1409.539,574.347c-7.797,0-14.118-6.318-14.118-14.117c0-7.801,6.321-14.117,14.118-14.117c7.796,0,14.117,6.316,14.117,14.117  C1423.656,568.028,1417.335,574.347,1409.539,574.347z M1451.891,574.347c-7.797,0-14.117-6.318-14.117-14.117  c0-7.801,6.32-14.117,14.117-14.117c7.796,0,14.118,6.316,14.118,14.117C1466.009,568.028,1459.687,574.347,1451.891,574.347z"/>
<g>
	<path fill="none" stroke="#666766" stroke-width="10" stroke-linejoin="round" stroke-miterlimit="10" d="M-123.303,410.012   h-240.065c-13.42,0-24.603-11.182-24.603-24.602V91.666c-0.746-13.42,10.438-24.603,24.603-24.603h240.812   c13.419,0,24.603,11.183,24.603,24.603v292.999C-97.955,398.83-109.138,410.012-123.303,410.012z"/>
	
		<circle fill="none" stroke="#666766" stroke-width="10" stroke-linejoin="round" stroke-miterlimit="10" cx="-243.335" cy="277.306" r="52.934"/>
	<path fill="none" stroke="#666766" stroke-width="10" stroke-linejoin="round" stroke-miterlimit="10" d="M-132.996,99.121   h-220.681v105.122h43.241c-20.13,18.639-33.549,44.732-33.549,74.555c0,55.169,44.732,99.904,99.902,99.904   c55.171,0,99.903-44.734,99.903-99.904c0-29.822-12.675-55.916-33.55-74.555h43.242V99.121H-132.996z"/>
	<g>
		
			<line fill="none" stroke="#666766" stroke-width="10" stroke-linejoin="round" stroke-miterlimit="10" x1="-147.161" y1="375.719" x2="-130.013" y2="375.719"/>
		
			<line fill="none" stroke="#666766" stroke-width="10" stroke-linejoin="round" stroke-miterlimit="10" x1="-356.659" y1="375.719" x2="-339.511" y2="375.719"/>
	</g>
</g>
</svg>
