<?xml version="1.0" encoding="utf-8"?>
<!-- Svg Vector Icons : http://www.onlinewebfonts.com/icon -->
<!DOCTYPE svg PUBLIC "-//W3C//DTD SVG 1.1//EN" "http://www.w3.org/Graphics/SVG/1.1/DTD/svg11.dtd">
<svg version="1.1" xmlns="http://www.w3.org/2000/svg" xmlns:xlink="http://www.w3.org/1999/xlink" x="0px" y="0px" viewBox="0 0 1000 1000" enable-background="new 0 0 1000 1000" xml:space="preserve">
<metadata> Svg Vector Icons : http://www.onlinewebfonts.com/icon </metadata>
<g><g><g><path d="M982.5,585.1l-0.1-2.7c4.6-26.7,7.4-53.8,7.5-81.6l0.1-0.8l-0.1-0.7c-0.1-27.8-2.9-55-7.4-81.6l0.1-2.7l-0.8-2c-4.8-26.7-11.8-52.5-20.8-77.5l-0.4-3l-1.6-2.7c-9.3-25-20.4-49.1-33.5-72l-1-2.8l-2.4-2.7c-13.6-23.1-28.8-45.3-45.8-65.8l-0.8-1.4l-1.8-1.5c-17.6-20.6-36.7-39.8-57.3-57.3l-1.2-1.6l-1.2-0.7c-20.7-17.3-42.9-32.5-66.2-46.3l-2.4-2.2l-2.5-0.8c-23.1-13.2-47.5-24.5-72.8-33.9l-2.2-1.3l-2.5-0.4c-25.3-9.1-51.4-16.3-78.3-21.1l-1.7-0.7l-2.2,0.1C555.9,12.9,528.3,10,500,10c-28.2,0-55.6,2.9-82.5,7.5l-2.6,0l-1.8,0.7c-26.9,4.8-53,12-78.2,21l-2.6,0.4l-2.3,1.4c-25.2,9.3-49.4,20.5-72.5,33.7l-2.7,0.9l-2.7,2.4c-23.2,13.6-45.3,28.8-65.8,45.9l-1.4,0.8l-1.5,1.8c-20.5,17.5-39.6,36.6-57.1,57.1l-1.8,1.4l-0.8,1.4c-17.2,20.6-32.4,42.8-46.1,66.1l-2.2,2.4l-0.8,2.5c-13.2,23-24.4,47.3-33.8,72.5l-1.5,2.4l-0.4,2.7c-9,25.2-16.2,51.2-21,78.1l-0.7,1.7l0,2.4c-4.6,26.8-7.5,54.2-7.5,82.2l-0.1,0.5l0.1,0.5c0,28.1,3,55.5,7.5,82.3l-0.1,2.3l0.7,2c4.9,26.9,12,52.8,21,78l0.4,2.5l1,1.3c9.4,25.5,20.7,50,34,73.4l0.9,2.7l1.8,1.8c13.7,23.4,29.1,45.8,46.4,66.6l0.9,1.5l1.9,1.5c17.4,20.4,36.3,39.4,56.8,56.8l1.8,2.2l1.8,1c20.3,16.9,42.2,31.8,65,45.3l3,2.7l2.4,0.7c22.9,13.2,47,24.3,72.1,33.6l3,1.8l3.8,0.7c24.6,8.7,50,15.7,76.2,20.5l2.4,0.9l3.3,0.3l1.1-0.2c25.8,4.3,52,7.1,79,7.1l1.5,0.3l1.4-0.3c27.1-0.1,53.6-2.9,79.6-7.2l0.7,0.2l3.3-0.3l1.9-0.7c26.6-4.8,52.3-11.8,77.3-20.8l3.4-0.6l2.6-1.6c25.2-9.4,49.5-20.6,72.4-33.8l2.4-0.7l3-2.6c22.9-13.5,44.8-28.5,65.1-45.4l1.7-1l1.7-2.1c20.5-17.4,39.4-36.4,56.8-56.8l1.9-1.5l0.9-1.6c17.2-20.7,32.4-43,46.1-66.2l2.1-2.1l1-3c13.2-23.1,24.4-47.5,33.8-72.9l1.2-1.5l0.4-2.9c8.9-24.9,16-50.7,20.9-77.3L982.5,585.1z M910.4,591.4l31,5.6c-2.9,13.4-6.4,26.8-10.5,39.8l-29.7-10.8c-9.7-3.5-20.6,1.5-24.2,11.2c-3.6,9.8,1.4,20.6,11.3,24.2l29.6,10.8c-5.3,12.8-11.2,25.2-17.5,37.3L822,664.1c-9-5.2-20.5-2.1-25.8,6.9c-5.2,9-2.1,20.5,6.9,25.8l78.2,45.2c-7.4,11.6-15.3,22.8-23.6,33.6l-23.8-20c-8-6.6-19.8-5.7-26.5,2.3c-6.7,7.9-5.7,19.8,2.3,26.6l23.7,20c-9.3,10.1-18.9,19.8-29.1,29l-19.8-23.7c-6.7-8.1-18.6-9.1-26.5-2.4c-8,6.7-9.1,18.6-2.4,26.5l19.9,23.8c-10.8,8.4-22.1,16.3-33.7,23.7l-45.2-78.3c-5.2-9-16.7-12.1-25.7-6.9c-9,5.2-12.1,16.7-6.9,25.7l45.3,78.4c-12.2,6.4-24.5,12.3-37.2,17.5l-10.7-29.5c-3.5-9.9-14.4-14.9-24.1-11.3c-9.8,3.5-14.9,14.4-11.3,24.2l10.7,29.7c-13,4.1-26.3,7.6-39.8,10.5l-5.5-31c-1.8-10.3-12.1-17.4-21.8-15.3c-10.3,1.8-17.2,11.6-15.3,21.7l5.4,30.8c-13.5,1.8-27.2,2.9-41,3.5l0-90.3c0-10.4-8.5-18.8-18.8-18.8c-10.4,0-18.8,8.5-18.8,18.8l0,90.2c-13.8-0.6-27.4-1.6-40.8-3.5l5.4-30.6c1.8-10.3-5.1-20-15.3-21.8c-10-2-20,5-21.8,15.3l-5.5,30.9c-13.5-2.9-26.8-6.4-39.8-10.5l10.7-29.6c3.6-9.8-1.5-20.6-11.3-24.2c-9.8-3.5-20.6,1.5-24.1,11.3L328,917.9c-12.8-5.3-25.2-11.2-37.4-17.6l45.4-78.5c5.2-9,2.2-20.5-6.9-25.8c-9-5.2-20.5-2.1-25.7,6.9l-45.3,78.3c-11.6-7.4-22.8-15.3-33.6-23.6l19.9-23.7c6.7-8,5.7-19.8-2.3-26.5c-7.9-6.7-19.8-5.7-26.5,2.4l-19.9,23.6c-10.2-9.2-19.8-18.9-29.1-29l23.7-19.9c8-6.7,9-18.5,2.3-26.5c-6.7-8.1-18.6-9.1-26.5-2.4l-23.8,19.9c-8.4-10.9-16.3-22.1-23.7-33.7l78.4-45.2c9-5.2,12.1-16.7,6.9-25.7c-5.2-9-16.7-12.1-25.7-6.9l-78.6,45.3c-6.4-12.2-12.2-24.5-17.5-37.2l29.6-10.7c9.8-3.5,14.8-14.4,11.3-24.1c-3.5-9.8-14.4-14.9-24.2-11.3L69,636.7c-4.1-13-7.6-26.3-10.5-39.8l31.1-5.5c10.2-1.8,17.1-11.6,15.3-21.9c-1.8-10.2-11.8-17.3-21.8-15.2l-30.8,5.4c-1.8-13.5-2.9-27.2-3.5-41.1l90.5,0c10.4,0,18.8-8.4,18.8-18.8c0-10.4-8.4-18.8-18.8-18.8l-90.5,0c0.6-13.8,1.7-27.5,3.5-41l30.8,5.5l3.3,0.3c8.9,0,16.9-6.4,18.5-15.6c1.8-10.2-5-20-15.3-21.8L58.5,403c3-13.5,6.4-26.8,10.5-39.9L98.7,374l6.5,1.1c7.7,0,14.9-4.7,17.7-12.4c3.6-9.8-1.5-20.6-11.2-24.2L82,327.8c5.3-12.8,11.2-25.2,17.6-37.3l78.5,45.4l9.4,2.5c6.5,0,12.8-3.4,16.3-9.4c5.2-9,2.1-20.5-6.9-25.7l-78.4-45.3c7.4-11.6,15.3-22.8,23.6-33.6l23.8,20c3.5,3,7.8,4.4,12.1,4.4c5.4,0,10.7-2.3,14.4-6.7c6.7-8,5.7-19.9-2.3-26.6l-23.8-20c9.2-10.1,18.9-19.8,29-29.1l19.9,23.8c3.8,4.4,9.1,6.7,14.5,6.7c4.2,0,8.6-1.4,12.1-4.4c8-6.7,9-18.6,2.3-26.6l-20-23.9c10.8-8.4,22-16.3,33.6-23.6l45.2,78.4c3.5,6,9.8,9.4,16.4,9.4l9.4-2.5c9-5.2,12.1-16.7,6.9-25.8l-45.3-78.6c12.2-6.4,24.5-12.3,37.3-17.6l10.7,29.6c2.8,7.7,10,12.4,17.7,12.4l6.4-1.1c9.8-3.6,14.8-14.4,11.3-24.2l-10.8-29.8c13-4.1,26.3-7.6,39.8-10.5l5.5,31c1.6,9.2,9.6,15.6,18.5,15.6l3.3-0.3c10.2-1.8,17.1-11.6,15.3-21.8L440.2,52c13.5-1.8,27.2-2.9,41-3.5l0,90.7c0,10.4,8.4,18.8,18.8,18.8c10.4,0,18.8-8.4,18.8-18.8l0-90.5c13.9,0.6,27.5,1.7,41,3.5L554.4,83c-1.8,10.2,5,20,15.3,21.8l3.3,0.3c8.9,0,16.8-6.4,18.5-15.6l5.5-31.1c13.5,2.9,26.8,6.4,39.8,10.5l-10.9,29.7c-3.6,9.8,1.5,20.6,11.2,24.2l6.5,1.1c7.7,0,15-4.7,17.8-12.3L672.2,82c12.8,5.3,25.2,11.2,37.3,17.6L664.2,178c-5.2,9-2.1,20.5,6.9,25.7l9.4,2.5c6.5,0,12.8-3.4,16.3-9.4l45.2-78.3c11.6,7.4,22.8,15.3,33.6,23.7l-20,23.8c-6.8,8-5.7,19.8,2.3,26.5c3.5,3,7.8,4.4,12.1,4.4c5.3,0,10.7-2.3,14.4-6.7l20-23.8c10.2,9.3,19.8,19,29.1,29.1l-23.8,19.8c-8,6.7-9,18.5-2.4,26.5c3.7,4.5,9,6.8,14.5,6.8c4.2,0,8.6-1.4,12-4.4l23.9-19.9c8.4,10.9,16.3,22.1,23.7,33.7l-78.3,45.1c-9,5.2-12.1,16.7-6.9,25.8c3.5,6,9.8,9.4,16.3,9.4l9.4-2.5l78.5-45.2c6.4,12.1,12.3,24.5,17.5,37.1l-29.6,10.7c-9.8,3.6-14.9,14.4-11.4,24.2c2.8,7.7,10,12.4,17.8,12.4l6.4-1.1l29.8-10.8c4.1,13.1,7.5,26.3,10.5,39.8l-31,5.4c-10.2,1.8-17.1,11.5-15.3,21.8c1.6,9.2,9.6,15.6,18.6,15.6l3.2-0.3l30.8-5.4c1.9,13.5,2.9,27.2,3.5,41l-90.3,0c-10.4,0-18.8,8.4-18.8,18.8c0,10.4,8.5,18.8,18.8,18.8l90.3,0c-0.6,13.8-1.7,27.5-3.5,40.9l-30.7-5.5c-10.2-1.7-20.1,5-21.9,15.2C893.4,579.7,900.2,589.5,910.4,591.4z"/><path d="M500,217.4l-56.5,282.5H257.9c0,133.8,108.4,242.2,242.2,242.2c133.8,0,242.2-108.4,242.2-242.2H556.5L500,217.4z M460.1,539.9c-11-11-16.5-25.5-16.5-40h112.4l37.3,93.3L460.1,539.9z"/></g></g><g></g><g></g><g></g><g></g><g></g><g></g><g></g><g></g><g></g><g></g><g></g><g></g><g></g><g></g><g></g></g>
</svg>