<?xml version="1.0" encoding="UTF-8" standalone="no"?>
<!-- Created with Inkscape (http://www.inkscape.org/) -->

<svg
   xmlns:dc="http://purl.org/dc/elements/1.1/"
   xmlns:cc="http://creativecommons.org/ns#"
   xmlns:rdf="http://www.w3.org/1999/02/22-rdf-syntax-ns#"
   xmlns:svg="http://www.w3.org/2000/svg"
   xmlns="http://www.w3.org/2000/svg"
   xmlns:sodipodi="http://sodipodi.sourceforge.net/DTD/sodipodi-0.dtd"
   xmlns:inkscape="http://www.inkscape.org/namespaces/inkscape"
   id="svg4180"
   version="1.1"
   inkscape:version="0.91 r13725"
   width="292.5"
   height="257.5"
   viewBox="0 0 292.5 257.5"
   sodipodi:docname="wio-link.svg">
  <metadata
     id="metadata4186">
    <rdf:RDF>
      <cc:Work
         rdf:about="">
        <dc:format>image/svg+xml</dc:format>
        <dc:type
           rdf:resource="http://purl.org/dc/dcmitype/StillImage" />
        <dc:title></dc:title>
      </cc:Work>
    </rdf:RDF>
  </metadata>
  <defs
     id="defs4184" />
  <sodipodi:namedview
     pagecolor="#ffffff"
     bordercolor="#666666"
     borderopacity="1"
     objecttolerance="10"
     gridtolerance="10"
     guidetolerance="10"
     inkscape:pageopacity="0"
     inkscape:pageshadow="2"
     inkscape:window-width="1302"
     inkscape:window-height="713"
     id="namedview4182"
     showgrid="false"
     inkscape:zoom="2.0596751"
     inkscape:cx="144.3618"
     inkscape:cy="129.43884"
     inkscape:window-x="54"
     inkscape:window-y="-1"
     inkscape:window-maximized="0"
     inkscape:current-layer="svg4180" />
  <g
     id="g4190"
     transform="translate(-0.97102723,0.48551339)">
    <path
       style="fill:#ededed"
       d="M 0,128.75 C 0,85.833333 0,42.916667 0,0 c 97.5,0 195,0 292.5,0 0,85.833333 0,171.66667 0,257.5 -97.5,0 -195,0 -292.5,0 0,-42.91667 0,-85.83333 0,-128.75 z"
       id="path4206"
       inkscape:connector-curvature="0" />
    <path
       style="fill:#de9fa2"
       d="m 74,243.5 c -0.858816,-13.52072 -5.339325,-32.78248 2.661297,-42.93243 7.81987,9.23193 1.235075,25.08966 3.056959,36.87903 C 79.864867,240.62162 78.562822,247.32661 74,243.5 Z m 21.467843,0.63819 c -13.183475,-5.43849 -7.641474,-22.13709 -9.40894,-33.17357 1.305363,-14.74059 18.048257,-11.58133 28.530027,-11.713 19.36505,-0.93581 14.39839,23.90501 13.27859,36.20755 -3.88321,14.16313 -21.80239,8.36049 -32.399677,8.67902 z m 24.488177,-10.30602 c 5.37562,-12.46824 0.29011,-32.99955 -16.67734,-25.81751 -13.46036,-2.74486 -7.715625,20.13801 -5.673482,27.28466 7.314022,0.65415 15.815432,3.19676 22.350822,-1.46715 z m -97.396299,7.52942 c -3.786864,-12.7196 -14.1998327,-29.46145 -10.67953,-40.69512 11.654735,-2.01884 7.510334,29.70268 16.973813,19.20733 0.388435,-9.20643 13.238182,-29.00139 16.657573,-10.18141 0.581349,5.59258 7.347387,21.66515 9.363188,7.66308 -0.38632,-6.5085 11.594537,-25.45124 12.056332,-10.75656 -5.158552,11.52983 -5.895239,31.2356 -17.439396,36.21178 -7.403187,-2.96005 -6.100667,-31.89709 -14.248553,-15.87532 -2.177224,4.91453 -3.841918,22.68492 -12.683427,14.42622 z m 131.060349,-1.29922 c -6.67859,-4.9954 -2.48681,-14.43934 -3.35215,-21.61046 0.11903,-6.35897 0.23805,-12.71794 0.35708,-19.07691 12.6199,-0.85028 4.11309,18.44083 7.32298,26.34667 -2.6437,18.26845 20.95356,3.97569 28.26376,13.28702 -2.36312,7.84177 -25.53349,6.15491 -32.59167,1.05368 z m 38.51599,2.90703 c 0.56545,-13.30244 -5.23291,-33.07754 3.2819,-42.32402 7.66612,8.96545 0.55216,23.98436 2.88222,35.24884 0.34486,3.62054 -1.07955,9.8449 -6.16412,7.07518 z m 12.833,-2.42578 c -0.30842,-12.69393 -4.99622,-31.95175 3.30992,-40.46667 13.25531,2.49859 17.50228,23.88182 29.79001,23.68363 1.76087,-6.36158 -2.84624,-28.4193 7.7897,-22.44896 -0.93174,13.60875 1.90762,27.51627 -1.18655,41.00454 -13.70237,-1.49881 -17.89228,-18.04397 -28.43493,-25.07316 -9.48046,-0.0208 2.38776,33.92612 -11.26815,23.30062 l 0,0 z m 47.03968,-0.0209 c 0.87178,-13.00134 -5.35364,-33.72405 3.94143,-41.83049 9.05016,3.94026 -1.56361,28.81543 10.70549,14.04565 4.30059,-4.24392 17.78876,-21.6508 20.46921,-9.51193 -7.76112,7.06826 -19.17561,20.64777 -3.47598,27.28996 7.2584,5.82947 2.27724,17.71688 -5.07309,7.0655 -5.41608,-5.85036 -14.98634,-20.30565 -17.8102,-4.98784 -1.09022,4.13236 -2.65718,13.13328 -8.75686,7.92915 z M 112.35294,163.89706 C 106.92772,150.34443 100.38357,137.24149 88.511808,128.43886 76.488959,124.48251 54.710983,117.07779 64.665699,100.40035 77.77463,92.630854 93.488587,88.378621 102.20769,74.367196 c 6.51949,-11.227045 10.11045,-33.443552 28.53671,-23.297303 15.22167,10.961207 0.62634,27.874426 -13.8632,28.515121 -9.9678,5.881562 -16.82743,15.812855 -25.348968,23.539986 -1.903406,15.04971 12.998548,23.35514 21.513168,33.13669 12.01241,8.97413 23.10843,-3.94684 31.07039,-12.38148 12.75403,-8.15222 6.28674,-32.157083 26.76732,-29.704022 19.73802,3.657708 11.64761,30.004772 -5.53923,30.733602 -12.58129,5.93265 -26.79236,17.53896 -28.51952,32.43299 -2.17724,10.44084 -17.67829,15.98085 -24.47142,6.55428 z m 12.3606,-9.91269 c -5.41087,-6.49544 -5.20043,6.66033 0,0 z M 78.75,108.05123 c -6.440949,-7.24212 -2.409528,9.01855 0,0 z m 91.25,0 c -6.44095,-7.24212 -2.40953,9.01855 0,0 z M 125,63.051229 c -6.92281,-7.340694 -4.04038,8.775701 0,0 z M 160.39227,166.31221 C 144.07176,155.72008 160.04965,135.60738 175.27199,136.38045 185.497,127.9728 205.49008,114.85217 195.50665,99.907395 185.36997,91.40392 173.73161,69.82661 158.63153,81.807928 145.15498,90.782386 137.49472,103.86595 132.7689,118.85061 118.56494,135.83013 96.06954,105.10563 114.91594,95.589827 c 16.24536,-0.94097 28.29533,-15.00458 36.17678,-27.472071 -0.24051,-16.693342 25.8813,-28.940293 29.91236,-8.108906 6.07828,14.143543 16.15571,28.947227 31.337,33.77708 17.8429,-1.25326 22.66106,25.6387 4.19472,28.47441 -15.65483,3.46122 -28.05105,16.24619 -33.95661,30.86006 -1.81514,10.99614 -10.80216,20.43487 -22.18792,13.19181 z m 8.98273,-12.35387 c -3.88939,-5.2455 -2.68886,6.87223 0,0 z m 46.875,-45.26831 c -5.12763,-7.67621 -5.83206,7.27443 0,0 z m -91.5625,-0.25253 c -5.26691,-5.9854 -5.23488,6.77857 0,0 z M 170,63.125 c -4.80472,-7.957082 -4.62842,7.664828 0,0 z M 100.25,47.25 c -2.129894,-14.76438 16.71764,-19.01 28.00342,-16.920822 10.44063,-1.80595 26.14943,16.005996 9.56861,17.85068 C 125.2473,33.756149 114.28812,48.034952 100.25,47.25 Z M 86.5,33.5 C 84.65751,13.877143 112.22334,9.6475875 127.09054,9.8943126 137.95448,10.557053 168.26872,21.499905 155.43934,33.936471 141.54176,28.736642 127.67629,17.607509 111.73311,23.798066 102.22275,23.781221 95.289157,38.137116 86.5,33.5 Z"
       id="path4204"
       inkscape:connector-curvature="0" />
    <path
       style="fill:#7689a8"
       d="M 20.816485,235.38165 C 19.865843,225.26179 3.5574869,206.28339 15.31611,201.49862 c 5.217489,4.42134 7.910412,32.18805 14.543996,17.57297 0.756075,-10.16002 12.269644,-26.52545 15.694393,-7.50774 0.603021,8.04854 8.470948,20.43232 9.77121,4.78039 -0.03986,-6.62698 12.39104,-23.87024 10.892868,-8.14029 -5.26515,10.64683 -6.043289,29.3895 -16.406191,34.03804 -6.634338,-3.38039 -7.200968,-32.48792 -14.417133,-16.11932 -2.082507,7.18972 -8.418942,27.0394 -14.578768,9.25898 z m 52.306889,5.637 c 0.318407,-13.00956 -2.678749,-30.53419 2.009717,-40.74368 9.858699,5.0895 1.641774,23.72928 4.166582,33.95645 0.371867,3.9503 -1.590568,14.74608 -6.176299,6.78723 z m 17.444807,-0.33684 c -3.858538,-12.70651 -9.401764,-36.36249 8.264252,-40.53929 9.356327,1.56623 23.747127,-5.07744 28.102797,6.22973 2.17757,11.95899 6.45725,32.58092 -8.04061,37.71133 -9.31798,-1.79799 -20.000222,2.54497 -28.326439,-3.40177 z m 30.088099,-7.24431 c -0.53036,-7.63613 3.05226,-21.55859 -2.36947,-25.3125 -7.55394,0 -15.10789,0 -22.66183,0 1.883729,8.91087 -6.194601,26.36635 5.89209,27.79401 6.2938,0.79766 13.90061,2.0233 19.13921,-2.48151 z m 36.18842,8.56757 c -10.49166,-9.92392 -9.01651,-31.21076 -2.84308,-41.78698 9.75875,8.45094 -3.02946,25.90838 6.85357,34.07911 5.70925,5.35951 28.80479,-2.61371 22.64742,8.2424 -8.42581,3.13738 -18.06276,0.84707 -26.65791,-0.53453 z m 35.16404,-0.23231 c 0.85496,-12.46163 -5.17773,-32.94886 3.51442,-40.29931 7.74759,9.84311 1.31138,25.62958 2.42987,37.74908 0.028,3.59251 -3.29638,6.47786 -5.94429,2.55023 z m 13.8246,-0.10612 c 0.74078,-12.60133 -5.36851,-32.96121 3.45797,-40.68528 12.41442,4.11157 16.69182,21.55849 28.75491,24.92898 2.17401,-5.43151 -3.16958,-31.18586 7.58677,-22.91585 -0.52002,11.8097 4.18272,31.60378 -3.46468,38.29709 -12.60837,-3.6852 -17.31591,-23.23064 -29.20366,-24.24544 -3.61794,6.31497 5.54294,27.79341 -7.13131,24.6205 z m 46.751,-1.50908 c -0.20885,-12.59866 -5.84164,-32.69861 3.85169,-40.56158 4.75807,5.79623 -0.43822,27.25275 11.47897,13.00991 3.58958,-4.15759 17.49642,-19.17809 17.72483,-8.91664 -12.75352,8.86925 -12.74689,23.4668 0.81403,30.9006 -0.3357,17.55278 -11.70298,-6.27448 -18.69851,-7.89851 -11.75812,-5.04151 -5.9997,21.97603 -15.17101,13.46622 z M 115.44137,165.09207 C 107.73519,153.0145 105.15798,137.91375 92.262457,129.66476 84.572464,119.23873 62.998624,123.8128 63.87245,107.38876 68.78783,91.028993 89.526986,96.815951 97.222965,82.127201 112.3281,74.634833 103.38852,47.705181 124.17334,49.473743 c 19.79115,1.993187 13.24069,30.882249 -5.3946,27.870798 -12.15343,6.122624 -25.592331,17.642637 -28.862726,31.480439 3.996599,13.65458 18.517896,23.79023 28.809226,32.39395 12.93213,0.51657 20.53444,-11.7759 29.33847,-19.0386 7.21194,-9.91213 11.34917,-36.531309 28.37141,-23.275303 12.60263,11.694483 -2.04675,22.756623 -13.9698,24.657713 -15.3801,7.81526 -25.62867,22.41939 -31.02741,38.41684 -3.07847,6.5488 -10.53913,6.53894 -15.99654,3.11249 z m 10.56222,-10.87047 c -6.04686,-13.20985 -9.41099,12.07649 0,0 z M 79.897515,110.19149 c -0.637709,-15.148393 -13.494385,8.06109 0,0 z M 170.625,108.73288 c -4.86135,-11.193989 -7.5319,10.67846 -0.16914,0.69798 l 0.16914,-0.69798 z M 124.58021,64.290979 c -1.10523,-13.011548 -8.03434,7.375652 0,0 z m 38.40494,101.983931 c -18.13902,-9.54308 -0.15444,-30.12804 14.17019,-28.48893 7.60795,-9.57578 23.79401,-15.98902 22.91293,-29.40123 1.84167,-8.31165 -6.68679,-12.096331 -11.10929,-17.557864 -4.87556,-4.858962 -9.75111,-9.717924 -14.62667,-14.576886 -14.54462,-3.828577 -21.96125,10.583142 -31.33613,18.893478 -9.61694,8.158002 -5.44387,30.192862 -24.55629,25.411432 -18.20024,-5.79567 -5.91988,-28.232342 9.40342,-26.891242 13.52518,-6.068782 23.60029,-19.206333 28.83606,-33.168658 4.5834,-20.569054 29.12074,-5.593281 26.40436,10.08313 10.66943,11.032306 20.50384,25.751112 37.29122,26.191698 13.17199,9.706902 1.82425,29.010782 -12.97651,25.305782 -8.98301,8.28682 -19.1562,16.67791 -25.33462,27.55209 0.12683,10.01422 -7.82178,21.33243 -19.07867,16.6472 z m 8.04003,-12.23077 c -5.30462,-13.21907 -10.17737,12.02847 0,0 z m -46.03839,-43.40322 c 2.42649,-17.209738 -13.05128,5.91885 0,0 z m 91.25,0 c 1.92272,-18.587738 -14.30553,7.80616 0,0 z m -46.4263,-44.247345 c 4.74541,-15.816635 -13.68383,2.664752 0,0 z M 100.70607,46.33958 c -1.031838,-14.926998 18.39844,-17.94317 29.62853,-15.269521 10.65669,-1.886213 22.08628,17.735434 6.92664,16.572392 -10.99089,-14.3325 -23.71136,0.761382 -36.55517,-1.302871 z M 86.964286,33.035714 C 84.907852,16.383609 108.39432,11.444696 121.24628,10.37029 c 13.52131,0.440298 33.82453,4.744957 37.90847,18.9603 -8.47511,13.427811 -18.21289,-9.712295 -30.21994,-7.239384 -13.74906,-2.43494 -26.65947,4.287029 -37.306727,12.214398 -1.60796,0.821822 -3.7646,0.408937 -4.663797,-1.26989 z"
       id="path4202"
       inkscape:connector-curvature="0" />
    <path
       style="fill:#c95b61"
       d="m 24.479255,241.41869 c -3.410158,-11.9071 -13.293374,-29.48491 -10.786457,-38.46414 7.71238,3.95991 5.62626,30.33774 15.900303,21.49298 2.029498,-6.69597 8.718269,-31.70823 14.255272,-13.90242 -0.06881,12.47026 11.547569,22.2762 13.82174,4.70486 0.02587,-7.27348 11.379949,-18.89991 6.009912,-5.04683 -3.541237,9.90602 -6.24173,25.43205 -13.551971,30.68611 -6.271917,-4.56275 -5.626863,-33.51651 -15.188427,-18.71384 -3.100616,6.04423 -2.282014,17.78361 -10.460372,19.24328 z m 49.861511,-0.43215 c -0.0387,-11.04963 -2.064133,-32.79028 2.201299,-37.04811 2.609877,11.91484 3.282072,28.1495 -1.098604,38.25252 l -1.102695,-1.20441 z m 17.702808,-1.07727 c -5.765289,-12.49536 -8.489196,-39.91109 11.636816,-38.72469 15.44411,-4.29955 28.37355,6.79409 24.20947,22.5453 2.49038,18.90955 -16.20524,21.82681 -30.154062,18.43885 -2.031576,-0.30578 -4.047477,-0.99446 -5.692224,-2.25946 z M 121,236 c 5.0824,-14.44996 2.51224,-35.68715 -17.65788,-30.63311 -14.341773,1.09265 -13.46967,21.50427 -8.155658,30.22398 C 102.91938,240.38794 112.65716,236.69042 121,236 Z m 38.19304,5.63494 c -12.16045,-7.27094 -7.93419,-28.97673 -4.68193,-37.72605 5.52236,10.33489 -5.92698,31.32664 10.47546,33.42237 6.7056,-1.77894 29.497,2.39298 12.40129,4.86402 -6.06373,0.61678 -12.14711,-0.11761 -18.19482,-0.56034 z m 33.85783,-0.75235 c 0.0444,-10.98625 -2.07069,-32.8471 2.28237,-36.91212 2.14913,11.05106 5.29644,31.57121 -1.90122,37.81389 l -0.38115,-0.90177 0,0 z m 14.0585,-0.43988 c 0.249,-11.47741 -4.50685,-32.4324 2.68964,-37.90094 11.58038,5.08836 17.55339,25.06043 29.58816,24.55438 2.866,-5.4675 -3.02632,-26.29748 4.24107,-22.47135 0.55826,11.44587 3.18643,24.5381 -1.68404,35.06777 -11.17625,-4.41414 -16.25191,-19.23343 -27.12754,-25.32115 -9.82165,0.0671 2.19886,21.92481 -7.70729,26.07129 z m 47.43998,-0.06 c -0.81989,-13.30088 -1.78797,-26.75417 0.3497,-39.98615 3.32138,5.78637 0.95259,27.8061 11.59236,14.7927 4.27832,-3.18629 17.1872,-19.33208 17.59805,-10.55014 -8.59249,6.0063 -17.68045,19.47319 -3.39276,25.38094 6.40721,5.37811 4.06283,14.25291 -2.17643,4.95518 -6.04231,-7.36153 -15.04396,-19.73103 -19.29707,-3.50992 -1.41965,3.01708 -2.23859,6.491 -4.67385,8.91739 z M 115.44137,165.09207 C 107.73519,153.0145 105.15798,137.91375 92.262457,129.66476 84.548217,119.24297 62.944521,123.78809 63.867727,107.31542 69.581567,91.060978 90.804395,96.148114 98.679214,80.622343 112.33208,72.615632 107.1125,44.220283 128.68132,51.774668 145.2702,63.660952 124.75228,78.48602 111.572,79.741908 103.4654,89.635993 83.603774,101.5239 92.513382,116.56707 c 9.361908,7.81462 16.664918,21.01774 28.008868,24.65665 12.62941,-1.20216 20.51265,-12.91101 28.89555,-20.93151 5.0559,-11.37701 13.7168,-35.872048 28.65258,-19.61831 12.73378,19.37031 -17.05753,19.5519 -26.11409,29.97268 -15.99411,7.53168 -13.25409,33.27037 -30.11009,36.71239 -2.2707,-0.31674 -4.39684,-1.20688 -6.40483,-2.2669 z m 10.56222,-10.87047 c -6.04686,-13.20985 -9.41099,12.07649 0,0 z M 79.897515,110.19149 c -0.637709,-15.148393 -13.494385,8.06109 0,0 z M 170.625,108.73288 c -4.86135,-11.193989 -7.5319,10.67846 -0.16914,0.69798 l 0.16914,-0.69798 z M 126.15759,65.172675 c -1.64935,-21.349864 -15.58143,10.539898 0,0 z m 36.82756,101.102235 c -18.13902,-9.54308 -0.15444,-30.12804 14.17019,-28.48893 7.60795,-9.57578 23.79401,-15.98902 22.91293,-29.40123 1.84167,-8.31165 -6.68679,-12.096331 -11.10929,-17.557864 -4.87556,-4.858962 -9.75111,-9.717924 -14.62667,-14.576886 -14.54462,-3.828577 -21.96125,10.583142 -31.33613,18.893478 -9.61694,8.158002 -5.44387,30.192862 -24.55629,25.411432 -18.20024,-5.79567 -5.91988,-28.232342 9.40342,-26.891242 13.52518,-6.068782 23.60029,-19.206333 28.83606,-33.168658 4.5834,-20.569054 29.12074,-5.593281 26.40436,10.08313 10.66943,11.032306 20.50384,25.751112 37.29122,26.191698 13.17199,9.706902 1.82425,29.010782 -12.97651,25.305782 -8.98301,8.28682 -19.1562,16.67791 -25.33462,27.55209 0.12683,10.01422 -7.82178,21.33243 -19.07867,16.6472 z m 8.04002,-12.23077 c -5.30459,-13.21906 -10.17739,12.02848 0,0 z m -46.03838,-43.40322 c 2.42649,-17.209738 -13.05128,5.91885 0,0 z m 91.25,0 c 1.92272,-18.587738 -14.30553,7.80616 0,0 z m -46.4263,-44.247345 c 4.74541,-15.816635 -13.68383,2.664752 0,0 z m -67.92758,-20.93924 c 1.57652,-16.823983 26.59484,-16.058375 37.67399,-9.113547 8.58198,5.913639 0.9266,14.833625 -5.73639,6.388994 -10.5224,-7.76017 -22.70854,3.072596 -31.9376,2.724553 l 0,0 z M 88.155964,32.052214 C 87.785806,16.65528 109.34709,13.572216 121.12971,11.403632 c 12.25234,0.49372 36.87255,5.889442 35.06794,20.384199 C 142.67475,29.16624 130.93521,15.722254 115.64261,20.513525 105.07973,20.028419 97.029499,33.492958 88.155964,32.052214 Z"
       id="path4200"
       inkscape:connector-curvature="0" />
    <path
       style="fill:#4e678e"
       d="m 24.479255,241.41869 c -3.410158,-11.9071 -13.293374,-29.48491 -10.786457,-38.46414 7.71238,3.95991 5.62626,30.33774 15.900303,21.49298 2.029498,-6.69597 8.718269,-31.70823 14.255272,-13.90242 -0.06881,12.47026 11.547569,22.2762 13.82174,4.70486 0.02587,-7.27348 11.379949,-18.89991 6.009912,-5.04683 -3.541237,9.90602 -6.24173,25.43205 -13.551971,30.68611 -6.271917,-4.56275 -5.626863,-33.51651 -15.188427,-18.71384 -3.100616,6.04423 -2.282014,17.78361 -10.460372,19.24328 z m 49.861511,-0.43215 c -0.0387,-11.04963 -2.064133,-32.79028 2.201299,-37.04811 2.609877,11.91484 3.282072,28.1495 -1.098604,38.25252 l -1.102695,-1.20441 z m 17.702808,-1.07727 c -5.765289,-12.49536 -8.489196,-39.91109 11.636816,-38.72469 15.44411,-4.29955 28.37355,6.79409 24.20947,22.5453 2.49038,18.90955 -16.20524,21.82681 -30.154062,18.43885 -2.031576,-0.30578 -4.047477,-0.99446 -5.692224,-2.25946 z M 121,236 c 5.0824,-14.44996 2.51224,-35.68715 -17.65788,-30.63311 -14.341773,1.09265 -13.46967,21.50427 -8.155658,30.22398 C 102.91938,240.38794 112.65716,236.69042 121,236 Z m 38.19304,5.63494 c -12.16045,-7.27094 -7.93419,-28.97673 -4.68193,-37.72605 5.52236,10.33489 -5.92698,31.32664 10.47546,33.42237 6.7056,-1.77894 29.497,2.39298 12.40129,4.86402 -6.06373,0.61678 -12.14711,-0.11761 -18.19482,-0.56034 z m 33.85783,-0.75235 c 0.0444,-10.98625 -2.07069,-32.8471 2.28237,-36.91212 2.14913,11.05106 5.29644,31.57121 -1.90122,37.81389 l -0.38115,-0.90177 0,0 z m 14.0585,-0.43988 c 0.249,-11.47741 -4.50685,-32.4324 2.68964,-37.90094 11.58038,5.08836 17.55339,25.06043 29.58816,24.55438 2.866,-5.4675 -3.02632,-26.29748 4.24107,-22.47135 0.55826,11.44587 3.18643,24.5381 -1.68404,35.06777 -11.17625,-4.41414 -16.25191,-19.23343 -27.12754,-25.32115 -9.82165,0.0671 2.19886,21.92481 -7.70729,26.07129 z m 47.43998,-0.06 c -0.81989,-13.30088 -1.78797,-26.75417 0.3497,-39.98615 3.32138,5.78637 0.95259,27.8061 11.59236,14.7927 4.27832,-3.18629 17.1872,-19.33208 17.59805,-10.55014 -8.59249,6.0063 -17.68045,19.47319 -3.39276,25.38094 6.40721,5.37811 4.06283,14.25291 -2.17643,4.95518 -6.04231,-7.36153 -15.04396,-19.73103 -19.29707,-3.50992 -1.41965,3.01708 -2.23859,6.491 -4.67385,8.91739 z M 118.125,165.11561 C 107.96842,154.51998 108.18902,137.2042 94.095208,129.40291 86.905796,118.23328 61.076635,121.57395 66.118466,104.40263 75.805658,93.879084 91.214763,94.39154 99.861477,81.44214 113.86241,73.680812 105.57679,45.406746 127.58379,51.267318 c 14.52278,5.715919 5.42213,27.445435 -8.76127,24.455512 -5.95802,-1.708611 -8.66584,5.943754 -13.00353,8.944589 -5.67965,5.73586 -11.359296,11.471721 -17.038942,17.207581 -4.191319,15.05227 9.812652,22.87526 18.647082,32.41184 7.87786,13.46902 25.68959,9.57499 32.83266,-2.58977 11.80427,-7.75682 14.45296,-19.82697 19.33207,-30.99294 12.60746,-14.142579 30.92013,12.70925 11.95885,17.65961 -15.38776,3.611 -25.92121,16.48954 -35.80706,27.89259 -3.60288,8.61113 -3.15238,23.75952 -17.61865,18.85928 z m 8.07516,-8.18056 c 5.66096,-15.10279 -19.04721,-0.0406 -2.48205,1.5937 l 1.35172,-0.63999 1.13033,-0.95371 z M 80.535714,111.78571 c 8.211198,-13.365577 -20.344617,-3.54618 -3.838106,1.96418 l 1.407512,-0.30318 2.430594,-1.661 z m 91.208956,-0.72897 c 5.46121,-14.105424 -19.57502,-1.37662 -3.77312,2.59866 1.62649,-0.10464 2.96067,-1.27162 3.77312,-2.59866 z M 126.15759,65.172675 c -1.64935,-21.349864 -15.58143,10.539898 0,0 z m 36.93711,99.332395 c -16.28453,-9.50354 2.29778,-25.77676 14.1779,-25.33947 8.09028,-10.56013 25.54267,-17.93746 24.66215,-32.30659 0.65289,-8.607207 -8.35309,-12.600579 -13.00053,-18.549155 C 184.5127,83.873237 180.09118,79.436618 175.66966,75 c -15.50307,-4.269341 -24.10694,9.159845 -33.76068,18.722321 -10.23823,7.359849 -5.27694,30.248249 -24.02412,25.567429 -16.19012,-8.69998 -0.80677,-25.267428 12.51191,-24.832513 12.21621,-7.80881 22.88827,-20.300191 27.59391,-34.563844 5.6805,-19.239329 26.42515,-1.326413 24.65195,11.806309 9.62179,8.990853 17.12322,25.525502 31.30925,25.2366 16.13959,1.405316 13.27389,24.047528 -2.24395,23.670708 -14.22306,3.39583 -23.70177,16.49958 -30.46378,28.73417 -2.96017,8.19772 -6.63631,21.03408 -18.14945,15.16389 z m 9.34317,-8.139 c 3.46849,-12.96637 -18.60529,-2.28466 -4.97884,2.28422 1.88888,0.23014 4.04229,-0.51396 4.97884,-2.28422 z m -46.20134,-44.47484 c 6.89089,-13.602045 -18.93073,-4.6436 -4.3768,1.83868 1.65714,0.16833 3.27732,-0.6455 4.3768,-1.83868 z m 91.75442,-0.95373 c 2.3344,-14.618675 -18.85791,1.59217 -3.10975,2.43907 l 1.23133,-0.53356 1.87842,-1.90551 z M 172.12977,65.404128 c 2.98352,-15.453775 -19.89904,3.204607 -2.38596,2.45866 l 1.36655,-1.111886 1.01941,-1.346774 z M 101.88291,45.454335 c 1.57652,-16.823983 26.59484,-16.058375 37.67399,-9.113547 8.58198,5.913639 0.9266,14.833625 -5.73639,6.388994 -10.5224,-7.76017 -22.70854,3.072596 -31.9376,2.724553 l 0,0 z M 88.155964,32.052214 C 87.785806,16.65528 109.34709,13.572216 121.12971,11.403632 c 12.25234,0.49372 36.87255,5.889442 35.06794,20.384199 C 142.67475,29.16624 130.93521,15.722254 115.64261,20.513525 105.07973,20.028419 97.029499,33.492958 88.155964,32.052214 Z"
       id="path4198"
       inkscape:connector-curvature="0" />
    <path
       style="fill:#bd1d25"
       d="m 18.883079,222.8125 c -3.045103,-5.14839 -8.315519,-27.76594 -1.728562,-11.66625 1.007835,9.47515 11.390115,28.77646 15.094793,9.1004 0.842405,-7.57147 9.517611,-23.44276 11.309686,-6.75291 0.478058,9.22042 11.164518,24.05031 13.493315,6.51576 0.767985,-5.46827 10.255748,-24.69117 5.19291,-8.5571 -3.322652,8.57076 -5.988471,24.75724 -12.476333,27.56163 -4.333509,-5.70854 -4.724801,-31.54959 -14.472195,-20.56054 -2.132343,7.47508 -8.902204,31.13764 -13.324969,12.91578 -1.06579,-2.83906 -2.074723,-5.69893 -3.088645,-8.55677 z M 75,221.875 c -1.21304,-6.13457 1.868545,-26.70903 2.288812,-9.70609 -0.02868,7.29793 1.470963,25.97437 -1.813312,25.50804 C 74.978473,232.42477 75.058982,227.14368 75,221.875 Z m 17.068735,17.08907 c -2.937534,-12.79246 -7.894466,-38.72267 12.939415,-36.74117 14.78598,-3.59892 25.24541,7.52328 22.06938,21.66064 2.37688,18.27673 -17.26028,20.14883 -30.292548,17.07942 -1.701982,-0.24988 -3.40373,-0.84832 -4.716247,-1.99889 z m 29.716975,-2.17836 c 4.82097,-12.86443 4.85164,-36.34017 -14.71656,-32.25026 -15.942207,-3.03834 -16.76939,14.08227 -14.830798,25.13138 1.917181,15.10913 19.933668,8.92543 29.547358,7.11888 z m 36.1085,3.20556 c -9.30416,-7.21602 -5.92886,-32.49472 -3.05414,-34.21678 -0.33464,13.46469 -3.5241,37.53535 17.76743,32.85737 7.94581,-0.45838 12.89442,2.86588 1.64002,2.48038 -5.46267,0.0646 -11.00007,0.1397 -16.35331,-1.12097 z M 193.75,221.875 c -1.21304,-6.13457 1.86854,-26.70903 2.28881,-9.70609 -0.0287,7.29793 1.47096,25.97437 -1.81331,25.50804 -0.49703,-5.25218 -0.41652,-10.53327 -0.4755,-15.80195 z m 13.75,-0.71665 c -1.90608,-6.90708 0.9512,-26.11849 8.78711,-11.88848 7.32961,4.4793 17.7383,27.28844 24.92531,16.68356 -0.66011,-5.5064 0.62964,-30.71306 2.19036,-15.37696 -0.20333,8.02183 3.05843,26.97316 -3.26677,27.77614 -10.10568,-7.39666 -17.95445,-24.48171 -28.76426,-26.51275 -3.58493,6.72739 0.98461,25.47726 -3.39529,24.6837 -0.49668,-5.10617 -0.4179,-10.24206 -0.47646,-15.36521 z m 47.1875,18.12027 c -1.08626,-10.63113 -2.13304,-30.08841 1.04154,-35.41581 -0.95491,8.83619 2.57967,25.30827 12.38803,11.62461 4.35649,-5.45545 23.30756,-19.21654 10.27018,-6.53816 -14.92816,9.57263 0.0442,19.56342 5.52689,28.90857 -5.5942,-5.32923 -19.28787,-23.38252 -26.24133,-7.69202 -1.74576,2.70084 -0.53198,6.94427 -2.98531,9.11281 z M 118.125,165.11561 c -10.15658,-10.59563 -9.93598,-27.91141 -24.029792,-35.7127 -7.20808,-11.13438 -33.553015,-8.03292 -27.84365,-25.30775 11.293467,-9.965801 26.85899,-12.199756 36.353742,-25.387138 10.94656,-7.506792 5.73712,-33.410545 25.15047,-25.269903 16.73,10.472943 -3.55513,23.687934 -15.45613,24.380804 -8.67094,10.716891 -26.27475,19.18512 -23.563988,34.995947 0.641842,6.16947 7.493668,9.18113 11.053705,13.8579 5.292153,5.27574 10.584313,10.55149 15.876463,15.82723 15.31213,4.10277 23.3545,-10.42593 33.11124,-19.40608 9.78558,-7.64668 4.72341,-29.386703 23.04785,-25.68545 16.58153,6.855 3.61827,24.73063 -9.95278,24.46929 -11.16226,8.70065 -26.22202,18.14211 -28.92817,33.22497 0.89311,7.25433 -8.3794,13.31015 -14.81896,10.01288 z m 8.07516,-8.18056 c 5.66096,-15.10279 -19.04721,-0.0406 -2.48205,1.5937 l 1.35172,-0.63999 1.13033,-0.95371 z M 80.535714,111.78571 c 8.211198,-13.365577 -20.344617,-3.54618 -3.838106,1.96418 l 1.407512,-0.30318 2.430594,-1.661 z m 91.208956,-0.72897 c 5.46121,-14.105424 -19.57502,-1.37662 -3.77312,2.59866 1.62649,-0.10464 2.96067,-1.27162 3.77312,-2.59866 z M 126.1929,66.943803 c 6.63868,-16.375649 -20.1326,-1.434339 -2.49665,1.595387 l 1.36036,-0.642201 1.13629,-0.953186 z m 36.9018,97.561267 c -16.28453,-9.50354 2.29778,-25.77676 14.1779,-25.33947 8.09028,-10.56013 25.54267,-17.93746 24.66215,-32.30659 0.65289,-8.607207 -8.35309,-12.600579 -13.00053,-18.549155 C 184.5127,83.873237 180.09118,79.436618 175.66966,75 c -15.50307,-4.269341 -24.10694,9.159845 -33.76068,18.722321 -10.23823,7.359849 -5.27694,30.248249 -24.02412,25.567429 -16.19012,-8.69998 -0.80677,-25.267428 12.51191,-24.832513 12.21621,-7.80881 22.88827,-20.300191 27.59391,-34.563844 5.6805,-19.239329 26.42515,-1.326413 24.65195,11.806309 9.62179,8.990853 17.12322,25.525502 31.30925,25.2366 16.13959,1.405316 13.27389,24.047528 -2.24395,23.670708 -14.22306,3.39583 -23.70177,16.49958 -30.46378,28.73417 -2.96017,8.19772 -6.63631,21.03408 -18.14945,15.16389 z m 9.34317,-8.139 c 3.46849,-12.96637 -18.60529,-2.28466 -4.97884,2.28422 1.88888,0.23014 4.04229,-0.51396 4.97884,-2.28422 z m -46.20134,-44.47484 c 6.89089,-13.602045 -18.93073,-4.6436 -4.3768,1.83868 1.65714,0.16833 3.27732,-0.6455 4.3768,-1.83868 z m 91.75442,-0.95373 c 2.3344,-14.618675 -18.85791,1.59217 -3.10975,2.43907 l 1.23133,-0.53356 1.87842,-1.90551 z M 172.12977,65.404128 c 2.98352,-15.453775 -19.89904,3.204607 -2.38596,2.45866 l 1.36655,-1.111886 1.01941,-1.346774 z M 102.72515,44.725146 c 3.54862,-14.116159 23.28692,-14.224717 33.95775,-8.603066 9.19571,3.474994 5.56071,14.392283 -2.65731,5.614836 -10.19214,-7.064045 -21.7803,1.02965 -31.30044,2.98823 l 0,0 z M 87.927626,30.561399 C 94.339196,15.819102 113.472,11.85916 128.00619,13.086586 c 8.8431,1.053319 32.18486,8.873834 26.02289,18.173841 -12.8378,-7.933119 -28.03078,-16.526921 -43.64821,-10.123792 -7.76157,-0.29828 -16.69211,13.87 -22.453244,9.424764 z"
       id="path4196"
       inkscape:connector-curvature="0" />
    <path
       style="fill:#c01a22"
       d="m 18.883079,222.8125 c -3.045103,-5.14839 -8.315519,-27.76594 -1.728562,-11.66625 1.007835,9.47515 11.390115,28.77646 15.094793,9.1004 0.842405,-7.57147 9.517611,-23.44276 11.309686,-6.75291 0.478058,9.22042 11.164518,24.05031 13.493315,6.51576 0.767985,-5.46827 10.255748,-24.69117 5.19291,-8.5571 -3.322652,8.57076 -5.988471,24.75724 -12.476333,27.56163 -4.333509,-5.70854 -4.724801,-31.54959 -14.472195,-20.56054 -2.132343,7.47508 -8.902204,31.13764 -13.324969,12.91578 -1.06579,-2.83906 -2.074723,-5.69893 -3.088645,-8.55677 z M 75,221.875 c -1.21304,-6.13457 1.868545,-26.70903 2.288812,-9.70609 -0.02868,7.29793 1.470963,25.97437 -1.813312,25.50804 C 74.978473,232.42477 75.058982,227.14368 75,221.875 Z m 17.068735,17.08907 c -2.937534,-12.79246 -7.894466,-38.72267 12.939415,-36.74117 14.78598,-3.59892 25.24541,7.52328 22.06938,21.66064 2.37688,18.27673 -17.26028,20.14883 -30.292548,17.07942 -1.701982,-0.24988 -3.40373,-0.84832 -4.716247,-1.99889 z m 29.716975,-2.17836 c 4.82097,-12.86443 4.85164,-36.34017 -14.71656,-32.25026 -15.942207,-3.03834 -16.76939,14.08227 -14.830798,25.13138 1.917181,15.10913 19.933668,8.92543 29.547358,7.11888 z m 36.1085,3.20556 c -9.30416,-7.21602 -5.92886,-32.49472 -3.05414,-34.21678 -0.33464,13.46469 -3.5241,37.53535 17.76743,32.85737 7.94581,-0.45838 12.89442,2.86588 1.64002,2.48038 -5.46267,0.0646 -11.00007,0.1397 -16.35331,-1.12097 z M 193.75,221.875 c -1.21304,-6.13457 1.86854,-26.70903 2.28881,-9.70609 -0.0287,7.29793 1.47096,25.97437 -1.81331,25.50804 -0.49703,-5.25218 -0.41652,-10.53327 -0.4755,-15.80195 z m 13.75,-0.71665 c -1.90608,-6.90708 0.9512,-26.11849 8.78711,-11.88848 7.32961,4.4793 17.7383,27.28844 24.92531,16.68356 -0.66011,-5.5064 0.62964,-30.71306 2.19036,-15.37696 -0.20333,8.02183 3.05843,26.97316 -3.26677,27.77614 -10.10568,-7.39666 -17.95445,-24.48171 -28.76426,-26.51275 -3.58493,6.72739 0.98461,25.47726 -3.39529,24.6837 -0.49668,-5.10617 -0.4179,-10.24206 -0.47646,-15.36521 z m 47.1875,18.12027 c -1.08626,-10.63113 -2.13304,-30.08841 1.04154,-35.41581 -0.95491,8.83619 2.57967,25.30827 12.38803,11.62461 4.35649,-5.45545 23.30756,-19.21654 10.27018,-6.53816 -14.92816,9.57263 0.0442,19.56342 5.52689,28.90857 -5.5942,-5.32923 -19.28787,-23.38252 -26.24133,-7.69202 -1.74576,2.70084 -0.53198,6.94427 -2.98531,9.11281 z M 120,164.01245 C 109.1814,154.7413 110.45082,137.06537 96.220222,130.11256 90.032014,116.96892 65.012523,122.03655 67.354057,105.78089 76.533495,95.369228 92.96517,96.982681 100.0483,82.834601 c 4.85466,-6.472361 14.26374,-8.242744 4.90416,0.06581 -8.722007,9.676205 -22.004541,17.355309 -17.289393,32.344079 2.299762,5.69017 8.496401,9.31671 12.419113,14.14743 4.71627,4.78602 9.43253,9.57205 14.14879,14.35808 16.24739,4.43222 25.57457,-9.19234 35.69565,-19.37547 9.50816,-7.57759 5.41799,-31.562603 24.1098,-24.16203 14.51812,16.02093 -13.41247,19.1307 -22.24822,25.66906 -10.36452,10.38603 -19.38521,23.11414 -24.19846,36.57704 -2.20092,1.41935 -4.97402,2.31688 -7.58974,1.55385 z m 6.74333,-5.63659 c 10.38983,-17.83796 -24.45673,-5.69178 -4.41675,1.67959 l 2.34468,-0.50643 2.07207,-1.17316 z M 81.909256,112.46215 c 9.3215,-13.06179 -20.02408,-11.57854 -9.459218,0.24875 2.409881,2.65775 7.337879,2.99251 9.459218,-0.24875 z m 91.364244,-0.63836 c 7.91923,-15.621198 -24.17328,-6.29378 -7.60699,2.80114 2.77536,0.92011 6.13329,-0.22228 7.60699,-2.80114 z m -10.42745,50.71031 c -13.48982,-9.49802 4.01295,-22.40976 14.16426,-21.09046 9.06128,-10.35861 26.37616,-18.24046 26.20534,-33.09717 -0.0771,-14.688687 -17.56296,-22.695477 -26.66743,-32.848894 -8.84101,-5.754434 -18.71486,-1.839862 -24.43827,6.087586 -6.53665,6.440366 -13.0733,12.880732 -19.60995,19.321098 5.42374,13.03431 -14.19255,26.4134 -19.81309,10.40017 -0.69255,-17.823059 22.8166,-10.8096 29.38438,-25.002419 10.97819,-7.633275 14.25172,-19.057913 18.58845,-29.849855 11.53007,-9.309056 18.91946,4.096978 19.54619,13.989295 9.11115,10.898307 18.12056,25.393783 32.89899,27.971863 16.33926,0.954055 11.58058,24.797676 -3.97757,20.176656 -12.57301,6.00779 -22.45698,19.02248 -31.23768,30.19027 3.26355,8.41068 -6.40203,20.72798 -15.04362,13.75186 z m 10.67674,-7.30325 c -2.98578,-20.88246 -21.76494,11.19823 -1.01787,3.36998 l 0.85394,-1.51283 0.16393,-1.85715 0,0 z M 126.54965,113.4375 c 10.26557,-20.270583 -24.95208,-2.60548 -2.45612,1.25749 l 2.45612,-1.25749 z m 91.48606,-0.40179 c 9.74147,-19.078968 -25.04127,-4.74665 -4.02347,1.89632 l 2.18288,-0.56735 1.84059,-1.32897 z M 171.54965,68.4375 c 12.25393,-12.035514 -19.31551,-15.013692 -7.93994,-0.357135 2.03819,2.108467 5.81939,2.523721 7.93994,0.357135 z m -54.27067,5.676009 c -19.306706,-7.634537 8.20903,-35.70129 15.84872,-15.585193 4.04563,9.18333 -6.77798,19.584694 -15.84872,15.585193 z m 8.91392,-7.169706 c 6.63868,-16.375649 -20.1326,-1.434339 -2.49665,1.595387 l 1.36036,-0.642201 1.13629,-0.953186 z M 102.72515,44.725146 c 3.54862,-14.116159 23.28692,-14.224717 33.95775,-8.603066 9.19571,3.474994 5.56071,14.392283 -2.65731,5.614836 -10.19214,-7.064045 -21.7803,1.02965 -31.30044,2.98823 l 0,0 z M 87.927626,30.561399 C 94.339196,15.819102 113.472,11.85916 128.00619,13.086586 c 8.8431,1.053319 32.18486,8.873834 26.02289,18.173841 -12.8378,-7.933119 -28.03078,-16.526921 -43.64821,-10.123792 -7.76157,-0.29828 -16.69211,13.87 -22.453244,9.424764 z"
       id="path4194"
       inkscape:connector-curvature="0" />
    <path
       style="fill:#2b4a7a"
       d="m 18.883079,222.8125 c -3.045103,-5.14839 -8.315519,-27.76594 -1.728562,-11.66625 1.007835,9.47515 11.390115,28.77646 15.094793,9.1004 0.842405,-7.57147 9.517611,-23.44276 11.309686,-6.75291 0.478058,9.22042 11.164518,24.05031 13.493315,6.51576 0.767985,-5.46827 10.255748,-24.69117 5.19291,-8.5571 -3.322652,8.57076 -5.988471,24.75724 -12.476333,27.56163 -4.333509,-5.70854 -4.724801,-31.54959 -14.472195,-20.56054 -2.132343,7.47508 -8.902204,31.13764 -13.324969,12.91578 -1.06579,-2.83906 -2.074723,-5.69893 -3.088645,-8.55677 z M 75,221.875 c -1.21304,-6.13457 1.868545,-26.70903 2.288812,-9.70609 -0.02868,7.29793 1.470963,25.97437 -1.813312,25.50804 C 74.978473,232.42477 75.058982,227.14368 75,221.875 Z m 17.068735,17.08907 c -2.937534,-12.79246 -7.894466,-38.72267 12.939415,-36.74117 14.78598,-3.59892 25.24541,7.52328 22.06938,21.66064 2.37688,18.27673 -17.26028,20.14883 -30.292548,17.07942 -1.701982,-0.24988 -3.40373,-0.84832 -4.716247,-1.99889 z m 29.716975,-2.17836 c 4.82097,-12.86443 4.85164,-36.34017 -14.71656,-32.25026 -15.942207,-3.03834 -16.76939,14.08227 -14.830798,25.13138 1.917181,15.10913 19.933668,8.92543 29.547358,7.11888 z m 36.1085,3.20556 c -9.30416,-7.21602 -5.92886,-32.49472 -3.05414,-34.21678 -0.33464,13.46469 -3.5241,37.53535 17.76743,32.85737 7.94581,-0.45838 12.89442,2.86588 1.64002,2.48038 -5.46267,0.0646 -11.00007,0.1397 -16.35331,-1.12097 z M 193.75,221.875 c -1.21304,-6.13457 1.86854,-26.70903 2.28881,-9.70609 -0.0287,7.29793 1.47096,25.97437 -1.81331,25.50804 -0.49703,-5.25218 -0.41652,-10.53327 -0.4755,-15.80195 z m 13.75,-0.71665 c -1.90608,-6.90708 0.9512,-26.11849 8.78711,-11.88848 7.32961,4.4793 17.7383,27.28844 24.92531,16.68356 -0.66011,-5.5064 0.62964,-30.71306 2.19036,-15.37696 -0.20333,8.02183 3.05843,26.97316 -3.26677,27.77614 -10.10568,-7.39666 -17.95445,-24.48171 -28.76426,-26.51275 -3.58493,6.72739 0.98461,25.47726 -3.39529,24.6837 -0.49668,-5.10617 -0.4179,-10.24206 -0.47646,-15.36521 z m 47.1875,18.12027 c -1.08626,-10.63113 -2.13304,-30.08841 1.04154,-35.41581 -0.95491,8.83619 2.57967,25.30827 12.38803,11.62461 4.35649,-5.45545 23.30756,-19.21654 10.27018,-6.53816 -14.92816,9.57263 0.0442,19.56342 5.52689,28.90857 -5.5942,-5.32923 -19.28787,-23.38252 -26.24133,-7.69202 -1.74576,2.70084 -0.53198,6.94427 -2.98531,9.11281 z M 117.27897,74.113509 c -19.30669,-7.634553 8.20905,-35.701284 15.84873,-15.585191 4.01507,9.224004 -6.73462,19.556223 -15.84873,15.585191 z m 8.91393,-7.169706 c 6.63868,-16.375649 -20.1326,-1.434339 -2.49665,1.595387 l 1.36036,-0.642201 1.13629,-0.953186 z M 102.72515,44.725146 c 3.54862,-14.116159 23.28692,-14.224717 33.95775,-8.603066 9.19571,3.474994 5.56071,14.392283 -2.65731,5.614836 -10.19214,-7.064045 -21.7803,1.02965 -31.30044,2.98823 l 0,0 z M 87.927626,30.561399 C 94.339196,15.819102 113.472,11.85916 128.00619,13.086586 c 8.8431,1.053319 32.18486,8.873834 26.02289,18.173841 -12.8378,-7.933119 -28.03078,-16.526921 -43.64821,-10.123792 -7.76157,-0.29828 -16.69211,13.87 -22.453244,9.424764 z"
       id="path4192"
       inkscape:connector-curvature="0" />
  </g>
</svg>
